<svg xmlns="http://www.w3.org/2000/svg" viewBox="0 0 359.32 335.38"><defs><style>.cls-1{fill:#cd2e71;}</style></defs><g id="Layer_2" data-name="Layer 2"><g id="Layer_1-2" data-name="Layer 1"><path class="cls-1" d="M71.87,263.49c-12.08,0-23.78,0-35.47,0a35.3,35.3,0,0,1-24.27-9.13C3.85,246.92,0,237.55,0,226.46q0-53.13,0-106.27Q0,79,0,37.86C0,15.37,15.35,0,37.81,0H321.46C344,0,359.3,15.32,359.3,37.81q0,93.93,0,187.86c0,22.49-15.34,37.81-37.83,37.81q-70,0-140,.1a11,11,0,0,0-6.33,2.2q-40.16,31.86-80.11,64c-1.17.93-2.32,1.88-3.52,2.78-4,3-8.36,3.84-13,1.53s-6.71-6.16-6.71-11.22q0-27.12,0-54.26Zm23.95,34.89c1.61-1.25,2.5-1.93,3.37-2.63q32.13-25.69,64.22-51.46a20.42,20.42,0,0,1,13.66-4.84q72.21.21,144.43.08c9.14,0,13.85-4.67,13.85-13.76q0-94.11,0-188.21c0-8.87-4.75-13.6-13.64-13.6q-142,0-284,0C28.63,24,24,28.66,24,37.82q0,93.92,0,187.83c0,9.23,4.6,13.87,13.73,13.88,15.09,0,30.18,0,45.27,0,7.89,0,12.81,5,12.84,12.87,0,13.85,0,27.69,0,41.54Z"/><path class="cls-1" d="M179.66,119.77q-47.52,0-95,0c-9.15,0-15.1-8.16-11.91-16.24a11.62,11.62,0,0,1,10.21-7.64,31.35,31.35,0,0,1,3.36-.05q93.38,0,186.74,0a25.1,25.1,0,0,1,4.84.25,12,12,0,0,1,9.57,12.54,11.89,11.89,0,0,1-11.58,11.09c-8.23.17-16.47.06-24.7.06Z"/><path class="cls-1" d="M131.93,143.72h46c8.24,0,13.72,4.86,13.67,12.05s-5.49,11.89-13.46,11.89q-46.41,0-92.8,0c-8,0-13.43-4.84-13.48-11.88,0-7.22,5.39-12.06,13.65-12.06Q108.72,143.7,131.93,143.72Z"/></g></g></svg>