<svg xmlns="http://www.w3.org/2000/svg" viewBox="0 0 319.76 383.26"><defs><style>.cls-1{fill:#cd2e71;}</style></defs><g id="Layer_2" data-name="Layer 2"><g id="Layer_1-2" data-name="Layer 1"><path class="cls-1" d="M5.76,383.26c-5-1.83-5.12-6.15-5.17-10.4-.23-21.7-.6-43.4-.59-65.1Q.06,174.94.33,42.11C.36,21.42,11.89,5.87,30.77,1.25A45.94,45.94,0,0,1,41.49.06Q159.92,0,278.33,0c23.8,0,40.85,16.67,41.32,40.45.2,10,.09,20,0,29.93,0,6.64-3,9.48-9.72,9.5-16.46,0-32.93,0-49.39,0h-4.75v5.21q0,143.85.07,287.72c0,4.94-1.47,8.46-6.1,10.42H246c-12.08-4.86-24.14-9.74-36.24-14.52a5.29,5.29,0,0,0-3.53-.09c-12.22,4.8-24.4,9.72-36.58,14.61h-4.5c-.13-.2-.21-.5-.39-.58q-17.66-7.11-35.34-14.14a4.28,4.28,0,0,0-2.87,0c-12.1,4.86-24.17,9.8-36.25,14.73H85.85c-12.15-4.95-24.29-9.93-36.48-14.79a4.84,4.84,0,0,0-3.19.32q-18,7.17-35.93,14.47Zm10.48-19.89c1.53-.58,2.66-1,3.78-1.44,7.63-3.06,15.27-6.08,22.86-9.22a13.13,13.13,0,0,1,10.77.07c10.44,4.41,21,8.57,31.57,12.58a9,9,0,0,0,5.9,0c10.37-3.92,20.7-7.94,30.88-12.32a14.3,14.3,0,0,1,11.82-.09c10.49,4.28,21,8.51,31.58,12.56a8,8,0,0,0,5.21,0q16.38-6.3,32.61-13a10.85,10.85,0,0,1,8.65-.18c8.08,3.26,16.2,6.44,24.3,9.64,1.09.43,2.21.79,3.68,1.32V351.09q.06-149.29.23-298.6c0-12.26-1.13-25,7.58-36.58H42.93c-17,0-26.69,9.72-26.69,26.66q0,158.1,0,316.2ZM303.57,63.66c0-9,.48-17.63-.11-26.17-.83-11.91-10.88-20.94-23-21.53-11.28-.54-22.41,7.48-23.87,18.95-1.19,9.39-.24,19.05-.24,28.75Z"/><path class="cls-1" d="M136,176c0,2.56.09,5,0,7.53-.2,4.74-3.67,8.15-8.07,8.09s-7.55-3.35-7.76-8c-.11-2.48,0-5,0-7.74-1.71-.26-3.16-.47-4.61-.72a23.78,23.78,0,0,1-19.33-23c0-4.68,3-8.09,7.25-8.45s7.94,2.75,8.59,7.54c.82,6,3.3,8.25,9.36,8.31q6.74.07,13.47,0a12.65,12.65,0,0,0,4-.55c4.68-1.7,6.43-7.52,5-16.17-.72-4.37-3.55-7-8.25-7.14-4.86-.18-9.72,0-14.59-.07-15-.15-24.8-10-24.89-24.91,0-4-.22-8.06.52-11.93,2-10.33,10.49-17.68,21-18.81.61-.07,1.21-.18,2.37-.35,0-2.47-.07-4.92,0-7.37.16-5,3.57-8.54,8.08-8.42s7.63,3.54,7.78,8.4c.08,2.36,0,4.72,0,7.26,2.34.45,4.54.72,6.65,1.31,10,2.8,17.34,12.35,17.3,22.38,0,4.67-3,8.11-7.28,8.42-4.53.32-7.78-2.36-8.53-7.05-.08-.49-.11-1-.2-1.48-.87-4.75-3.64-7.2-8.47-7.28-5-.08-10-.09-15,0-5.21.11-8.28,3.25-8.43,8.49-.06,2.24,0,4.49,0,6.73.12,5.47,3.18,8.6,8.61,8.69,5,.09,10,0,15,0,13.79.14,24.12,10.38,24.29,24.12a70.83,70.83,0,0,1-.29,11.2c-1.58,10.89-9.49,18.53-20.51,20.29C138.16,175.54,137.2,175.76,136,176Z"/><path class="cls-1" d="M128.17,271.54q-34.59,0-69.19,0a20.73,20.73,0,0,1-5.17-.53,7.85,7.85,0,0,1,.07-15,21.34,21.34,0,0,1,5.18-.51q69,0,138,0a19.84,19.84,0,0,1,5.17.53,7.81,7.81,0,0,1-.07,15,21.34,21.34,0,0,1-5.18.52Q162.58,271.57,128.17,271.54Z"/><path class="cls-1" d="M128.18,215.58q34.78,0,69.56,0a15.83,15.83,0,0,1,4.77.56,7.73,7.73,0,0,1,5.3,8.11,7.86,7.86,0,0,1-7,7.1,22.69,22.69,0,0,1-2.61.11q-70.12,0-140.24,0c-5.28,0-8.37-1.9-9.4-5.66-1.52-5.5,2.36-10.2,8.6-10.22,16.33,0,32.66,0,49,0Z"/><path class="cls-1" d="M128.18,295.49h68.43c1.25,0,2.5,0,3.74.07a7.89,7.89,0,0,1,7.49,7.83,8,8,0,0,1-7.06,7.92,18.92,18.92,0,0,1-2.61.08H57.93c-6.08,0-9.63-3-9.65-7.95a7.6,7.6,0,0,1,7-7.83,50.66,50.66,0,0,1,5.23-.11Z"/></g></g></svg>